#!OML:ASF H:\Martial Arts Walks\Project 1\Capture day 1\Session 1\male.ASF
:FULLY-SPECIFIED
:DEGREES
1615
root -1.0896 14.8302 -26.1909 2.76852 20.9572 5.68499
lowerback 16.733 1.32752 -10.3128
upperback 2.27665 0.00653162 1.23798
thorax -6.93124 0.29949 7.21947
lowerneck 3.43406 -6.90292 -8.33788
upperneck -3.8886 -9.32513 8.5529
head -0.998724 -4.72468 4.41929
rclavicle -5.38706e-014 -1.03368e-014
rhumerus 15.7951 20.1392 -55.232
rradius 41.5204
rwrist 14.0468
rhand -16.1845 -20.2122
rfingers 7.12502
rthumb 10.0221 -49.9536
lclavicle -5.38706e-014 -1.03368e-014
lhumerus -36.6455 -35.2661 90.8841
lradius 82.9628
lwrist 45.0981
lhand -1.17956 45.8034
lfingers 7.12502
lthumb 24.4601 74.2617
rfemur -48.7429 7.22467 -7.2225
rtibia 29.1517
rfoot -4.24067 -6.54931
rtoes -1.32356
lfemur -15.7481 -4.26033 -19.9349
ltibia 65.2425
lfoot -18.8442 31.16
ltoes -31.3361
1616
root -1.04425 14.8524 -26.4309 2.85912 19.943 5.38727
lowerback 16.9581 1.32033 -10.1526
upperback 2.27178 0.00942042 1.36396
thorax -7.06109 0.305458 7.2695
lowerneck 3.12164 -6.5961 -8.1091
upperneck -3.9788 -8.88611 8.2697
head -1.03703 -4.49651 4.2684
rclavicle 9.14409e-015 -3.97569e-015
rhumerus 15.9227 20.715 -55.1866
rradius 42.1064
rwrist 13.7733
rhand -15.9379 -20.1218
rfingers 7.12502
rthumb 10.2601 -49.8516
lclavicle 9.14409e-015 -3.97569e-015
lhumerus -34.1219 -35.1586 89.7682
lradius 81.2849
lwrist 45.4964
lhand -1.96284 46.779
lfingers 7.12502
lthumb 23.709 75.3367
rfemur -49.4325 5.77236 -5.06255
rtibia 29.5765
rfoot -6.38453 -7.37529
rtoes -1.7598
lfemur -16.7751 -3.34563 -20.3401
ltibia 65.3901
lfoot -19.3987 31.7076
ltoes -30.2372
1617
root -0.99973 14.8696 -26.6734 2.90636 18.8738 5.05353
lowerback 17.2206 1.32684 -9.96663
upperback 2.30125 0.034268 1.49137
thorax -7.17809 0.319288 7.30156
lowerneck 2.81786 -6.27667 -7.86645
upperneck -4.12511 -8.42978 7.9837
head -1.09468 -4.26021 4.11675
rclavicle -6.75868e-015 1.39149e-014
rhumerus 16.1228 21.2088 -55.1814
rradius 42.6132
rwrist 13.5253
rhand -15.6421 -20.0359
rfingers 7.12502
rthumb 10.5454 -49.7514
lclavicle -6.75868e-015 1.39149e-014
lhumerus -31.5586 -34.9853 88.6286
lradius 79.6267
lwrist 45.9211
lhand -2.88541 47.9147
lfingers 7.12502
lthumb 22.8239 76.5842
rfemur -50.2698 3.56457 -2.12177
rtibia 30.4727
rfoot -7.94468 -8.16816
rtoes -2.47306
lfemur -17.8123 -2.34981 -20.7302
ltibia 65.5814
lfoot -20.1249 32.2829
ltoes -28.7032
1618
root -0.955758 14.8815 -26.9178 2.91239 17.7442 4.70339
lowerback 17.514 1.34824 -9.77053
upperback 2.36093 0.0796515 1.6112
thorax -7.28262 0.340725 7.31469
lowerneck 2.54346 -5.94337 -7.6165
upperneck -4.31384 -7.95678 7.69927
head -1.17012 -4.01644 3.96737
rclavicle 1.07344e-014 -7.95139e-015
rhumerus 16.3921 21.624 -55.2421
rradius 43.0198
rwrist 13.3029
rhand -15.3043 -19.9434
rfingers 7.12502
rthumb 10.8712 -49.642
lclavicle 1.07344e-014 -7.95139e-015
lhumerus -28.9741 -34.7527 87.4773
lradius 77.9927
lwrist 46.3541
lhand -3.92063 49.153
lfingers 7.12502
lthumb 21.8302 77.9417
rfemur -51.3115 0.818793 1.44168
rtibia 31.8781
rfoot -8.99224 -8.99421
rtoes -3.15719
lfemur -18.8468 -1.26767 -21.1269
ltibia 65.8122
lfoot -21.0248 32.8954
ltoes -26.7195
1619
root -0.912221 14.8882 -27.1638 2.88683 16.554 4.36438
lowerback 17.8319 1.39021 -9.58733
upperback 2.44169 0.147957 1.71266
thorax -7.38153 0.372095 7.30934
lowerneck 2.31229 -5.60252 -7.36402
upperneck -4.52031 -7.47738 7.41987
head -1.25642 -3.77061 3.8218
rclavicle 2.45499e-014 -3.97569e-015
rhumerus 16.7148 21.9574 -55.3884
rradius 43.3113
rwrist 13.0874
rhand -14.9325 -19.8588
rfingers 7.12502
rthumb 11.2298 -49.5382
lclavicle 2.45499e-014 -3.97569e-015
lhumerus -26.3844 -34.4838 86.3286
lradius 76.3885
lwrist 46.7805
lhand -5.04247 50.5323
lfingers 7.12502
lthumb 20.7526 79.4426
rfemur -52.5798 -2.11586 5.33376
rtibia 33.8338
rfoot -9.67153 -9.97883
rtoes -3.58501
lfemur -19.8758 -0.122446 -21.5451
ltibia 66.0968
lfoot -22.0988 33.4683
ltoes -24.3091
1620
root -0.869051 14.8901 -27.4112 2.84425 15.3166 4.05872
lowerback 18.1719 1.45171 -9.43284
upperback 2.52846 0.233235 1.7859
thorax -7.4886 0.412082 7.28491
lowerneck 2.13437 -5.25896 -7.11316
upperneck -4.71952 -6.99923 7.15225
head -1.34626 -3.52678 3.68245
rclavicle -4.3832e-014 1.07344e-014
rhumerus 17.0709 22.2101 -55.6367
rradius 43.4874
rwrist 12.829
rhand -14.5133 -19.7928
rfingers 7.12502
rthumb 11.6341 -49.4498
lclavicle -4.3832e-014 1.07344e-014
lhumerus -23.7943 -34.196 85.1916
lradius 74.8056
lwrist 47.182
lhand -6.17998 51.999
lfingers 7.12502
lthumb 19.6593 81.0249
rfemur -54.0358 -4.88481 9.22436
rtibia 36.3696
rfoot -10.1098 -11.2478
rtoes -3.5639
lfemur -20.9295 1.03606 -21.9862
ltibia 66.4638
lfoot -23.281 33.9093
ltoes -21.6325
